<?xml version="1.0" encoding="UTF-8"?>
<!DOCTYPE svg PUBLIC "-//W3C//DTD SVG 1.1//EN" "http://www.w3.org/Graphics/SVG/1.1/DTD/svg11.dtd">
<!-- Creator: CorelDRAW -->
<svg xmlns="http://www.w3.org/2000/svg" xml:space="preserve" width="66.1458mm" height="66.1458mm" version="1.1" style="shape-rendering:geometricPrecision; text-rendering:geometricPrecision; image-rendering:optimizeQuality; fill-rule:evenodd; clip-rule:evenodd"
viewBox="0 0 6614.58 6614.58"
 xmlns:xlink="http://www.w3.org/1999/xlink"
 xmlns:xodm="http://www.corel.com/coreldraw/odm/2003">
 <defs>
  <style type="text/css">
   <![CDATA[
    .fil1 {fill:#343434}
    .fil2 {fill:#393638}
    .fil5 {fill:#3B3B3B}
    .fil7 {fill:#B95956}
    .fil6 {fill:#BB5A5B}
    .fil3 {fill:#C55353}
    .fil4 {fill:#C65252}
    .fil0 {fill:#FE3231}
   ]]>
  </style>
 </defs>
 <g id="Camada_x0020_1">
  <metadata id="CorelCorpID_0Corel-Layer"/>
  <g id="_2084699903328">
   <path class="fil0" d="M2967.29 605.25l-19.18 20.36c-183.28,273.71 -285.02,179.94 -284.96,814.15 0.04,366.37 0,732.73 0,1099.1l-82.77 0c-39.07,73.21 -229.35,43.21 -385.36,43.52 -309.44,0.61 -1050.63,-33.26 -1241.58,50.67 0,34.35 9.84,27.93 -20.36,27.93l-40.7 20.35c-56.47,84.33 -515.96,463.88 -207.2,1021.36 24.18,43.67 69.82,102.62 101.94,142.3 49.59,61.27 88.56,68.07 125.61,118.63l40.71 20.36 28.57 20.35c144.85,97.79 1287.36,24.62 1570.47,51.44 118.29,3.08 0,0 118.29,3.08 0,359.59 -7.6,766.42 -7.62,1126 0,231.5 -2.52,481.79 148.07,666.07 22.23,27.2 42.11,45.59 68.41,74.07l68.48 74.01 18.56 20.35c54.57,46.24 62.14,48.73 148.91,53.78 321.08,72.29 485.4,-180.75 613.13,-392.35 57.63,-95.46 58.28,-99.49 61.88,-251.03 9.34,-393.33 -34.9,-961.57 9.4,-1325.96 125.99,-3.96 125.09,3.76 229.51,-34.31l25.59 -8.61c28.86,-40.34 -0.98,-15.28 55.14,-27.98l567.95 -2.68c300.44,-0.06 681.24,54.8 881.35,-82.43l155.53 -167.18c215.08,-292.36 211.04,-660.82 -15.68,-940.04 -88.81,-109.37 -188.24,-221.99 -389.32,-234.68l-1218.28 -8.29c-44.8,-9.82 -20.92,-1.54 -44.86,-19.3 -67.1,-25.41 -34.95,-30.76 -107.36,-44.93 -40.67,-7.97 -118.58,4.63 -132.39,-41.97l-13.58 -1215.08c0.34,-210.17 -79.62,-448.09 -218.8,-564.78l-268.66 -194.43c-140.79,7.32 -248.43,18.01 -338.84,88.15z"/>
   <path class="fil1" d="M892.38 2681.33l40.7 -20.35 20.36 -27.93c190.95,-83.93 932.14,-50.06 1241.58,-50.67 156.01,-0.31 346.29,29.69 385.36,-43.52 9.73,-375.82 1.46,-762.76 1.36,-1139.81 -0.07,-253.04 -7.17,-317.2 80.76,-489.14 55.36,-108.23 156.25,-254.17 285.61,-284.3l19.18 -20.36c90.41,-70.14 198.05,-80.83 338.84,-88.15 251.01,11.27 374.03,92.83 508.04,219.38 111.27,105.08 194.21,271.79 207.08,478.34 16.6,266.54 -33.94,1210.78 25.67,1363.47 406.54,-1.12 1013.49,-34.51 1398.24,7.81 873.51,96.09 886.71,1368.11 -13.28,1462.5 -433.06,45.42 -939.25,-24.43 -1376.79,12.27l-25.59 8.61c-14.64,363.1 45.48,1189.35 -28.43,1478.21 -51.79,202.41 -159.17,347.5 -294.76,435.29 -114.58,74.2 -442.57,214.5 -590.73,90.15 -86.77,-5.05 -94.34,-7.54 -148.91,-53.78l-18.56 -20.35c-180.27,-42 -352.23,-328.32 -366.37,-541.53 -67.63,-262.28 56.8,-1186.41 -29.26,-1401.7 -283.11,-26.82 -1425.62,46.35 -1570.47,-51.44 -34.98,0 -28.57,10.1 -28.57,-20.35l-40.71 -20.36c-213.23,-49.67 -404.34,-358.59 -408.64,-631.07 -2.24,-142.02 48.14,-318.13 108.23,-402.07 63.04,-88.05 170.4,-219.86 280.06,-249.15zm2777.18 3439.79c142.96,-141.16 429.19,-228.4 438.69,-772.78 7,-401.1 -5.73,-805.23 0.82,-1204.81l100.97 -14.74c145.18,49.88 646.19,18.02 834.51,18.02 317.43,0 362.5,28.45 644.31,-67.87l91.16 -33.9c199.41,-135.07 405.1,-347.42 411.35,-712.01 6.56,-381.59 -194.75,-576.17 -395.77,-733.11l-24.66 -14.86c-0.57,-0.28 -38.78,-17.94 -41.25,-18.89 -233.06,-89.3 -417.38,-68.02 -664.79,-68.02 -280.43,0 -576.4,-9.05 -854.86,2.1l-95.74 -8.94c-35.53,-363.73 1.42,-835.91 -6.89,-1215.33 -11.86,-541.36 -274.54,-612.8 -438.3,-772.5 -131.63,-94.43 -469.32,-94 -675.07,-15.13 -201.28,77.16 -339.49,225.27 -431.93,402.57 -141.94,272.2 -82.14,1175.85 -82.14,1607.23 -342.66,0 -1165.73,-36.87 -1427.51,17.61 -383.02,79.71 -637.18,426.94 -647.73,797.71 -10.48,368.78 270.16,720.33 635.71,807.4 263.12,62.67 1094.63,25.94 1439.53,25.94 0,795.81 -177.47,1732.57 511.21,1992.3 98.55,37.17 204.17,71.58 343.54,64.28 74.52,-3.9 293.21,-52.96 334.84,-82.27z"/>
   <path class="fil2" d="M2072.9 1175.16c0,134.1 -7.93,44.73 20.35,101.77 91.84,-10.05 76.25,-11.56 81.97,-182.64 14.69,-439.47 429.58,-887.59 938.21,-975.06 241.55,-41.53 184.88,-47.84 450.14,13.04 128.02,29.38 284.07,106.43 376.33,173.22 57.06,41.31 106.86,68.68 148.05,116.55 138.42,160.9 251.13,280.63 312.94,521.56 62.49,243.57 37.49,746.45 32.34,1046.42 -3.85,223.62 -41.7,182.48 367.07,182.47 599.92,-0.02 1241.39,-66.04 1588.24,609.97 200.59,390.96 165.68,904.52 -127.36,1257.98 -60.46,72.91 -101.07,105.79 -117.53,167.43l44.78 36.63c111.83,-73.54 222.9,-235.51 294.82,-368.71 174.59,-323.37 164.9,-770.43 6.74,-1093.01 -44.48,-90.71 -64.65,-126.99 -122.34,-203.32 -19.59,-25.92 -45.49,-65.41 -69.21,-93.63 -34.11,-40.59 -60.46,-51.35 -98.39,-84.79 -157.64,-138.99 -211.57,-176.08 -420.02,-251.65 -300.23,-108.85 -883.76,-78.67 -1244.33,-78.67 0,-535.44 77.41,-1148.1 -265.95,-1586.24l-18.51 -22.2c-785.16,-940.61 -2178.34,-266.73 -2178.34,712.88z"/>
   <path class="fil3" d="M3115.58 6073.13c148.16,124.35 476.15,-15.95 590.73,-90.15 135.59,-87.79 242.97,-232.88 294.76,-435.29 73.91,-288.86 13.79,-1115.11 28.43,-1478.21 -104.42,38.07 -103.52,30.35 -229.51,34.31 -44.3,364.39 -0.06,932.63 -9.4,1325.96 -3.6,151.54 -4.25,155.57 -61.88,251.03 -127.73,211.6 -292.05,464.64 -613.13,392.35z"/>
   <path class="fil1" d="M-3.19 3312.3c0,663.54 517.78,1241.58 1180.52,1241.58l895.57 0c0,204.25 -15.89,195.44 81.41,203.54l0 -284.96c-845.97,0 -1457.96,121.26 -1909.6,-573.55 -262.26,-403.47 -188.23,-1038 214.73,-1426.62 176.2,-169.92 459.36,-299.8 799.3,-299.8 -2.41,-108.33 41.76,-101.37 -202.1,-80.32 -94.49,8.16 -172.3,38 -258.73,67.27 -123.17,41.71 -216.85,98.71 -317.18,171.31 -8.83,6.38 -35.23,28.11 -44.46,36.96 -20.29,19.43 -11.52,15.39 -39.83,41.58 -252.84,234.05 -399.63,527.18 -399.63,903.01z"/>
   <path class="fil3" d="M4046.92 2578.29c-59.61,-152.69 -9.07,-1096.93 -25.67,-1363.47 -12.87,-206.55 -95.81,-373.26 -207.08,-478.34 -134.01,-126.55 -257.03,-208.11 -508.04,-219.38l268.66 194.43c139.18,116.69 219.14,354.61 218.8,564.78l13.58 1215.08c13.81,46.6 91.72,34 132.39,41.97 72.41,14.17 40.26,19.52 107.36,44.93z"/>
   <path class="fil4" d="M4055.09 4060.87c437.54,-36.7 943.73,33.15 1376.79,-12.27 899.99,-94.39 886.79,-1366.41 13.28,-1462.5 -384.75,-42.32 -991.7,-8.93 -1398.24,-7.81 23.94,17.76 0.06,9.48 44.86,19.3l1218.28 8.29c201.08,12.69 300.51,125.31 389.32,234.68 226.72,279.22 230.76,647.68 15.68,940.04l-155.53 167.18c-200.11,137.23 -580.91,82.37 -881.35,82.43l-567.95 2.68c-56.12,12.7 -26.28,-12.36 -55.14,27.98z"/>
   <path class="fil5" d="M3253.42 6528.2l0 81.41c423.11,0 703.52,-133.06 941.79,-381.19 97.47,-101.51 182.89,-244.16 238.66,-371.96 145.31,-333.06 101.83,-897.28 101.83,-1302.58l630.97 0c57.32,0 37.68,-8.8 61.06,-40.71 -23.84,-34.3 -2.92,-40.71 -61.06,-40.71 -872.85,0 -732.79,-99.11 -732.73,346.02 0.04,444.28 40.96,759.09 -135.09,1106.5 -144.99,286.09 -515.12,558.73 -842.97,581.79 -104.88,7.38 -114.81,1 -202.46,21.43z"/>
   <path class="fil6" d="M4210.04 2500.25c0,-420.8 5.01,-844.48 0.84,-1264.87 -1.79,-180.56 -71.86,-375.07 -158.24,-472.73 -91.3,-103.23 -228.08,-230.78 -383.53,-259.17 163.76,159.7 426.44,231.14 438.3,772.5 8.31,379.42 -28.64,851.6 6.89,1215.33l95.74 8.94z"/>
   <path class="fil6" d="M3669.56 6121.12c116.05,-21.37 139.42,-44.17 215.14,-101.45 194.99,-147.53 318.85,-329.43 326.07,-610.2 10.8,-420.27 -0.73,-858.36 -0.73,-1280.68l-100.97 14.74c-6.55,399.58 6.18,803.71 -0.82,1204.81 -9.5,544.38 -295.73,631.62 -438.69,772.78z"/>
   <path class="fil7" d="M5780.02 4045.04c483.71,-120.45 665.03,-810.03 366.8,-1183.69 -83.48,-104.58 -203.63,-249.64 -351.22,-261.43 201.02,156.94 402.33,351.52 395.77,733.11 -6.25,364.59 -211.94,576.94 -411.35,712.01z"/>
  </g>
 </g>
</svg>
